<svg version="1.1" id="Layer_1" xmlns="http://www.w3.org/2000/svg" xmlns:xlink="http://www.w3.org/1999/xlink" x="0px" y="0px"
	 width="100%" viewBox="0 0 472 132" enable-background="new 0 0 472 132" xml:space="preserve">
<path fill="#FDFDFD" opacity="1.000000" stroke="none" 
	d="
M346.000000,133.000000 
	C230.714203,133.000000 115.928391,133.000000 1.071293,133.000000 
	C1.071293,89.065842 1.071293,45.131531 1.071293,1.098610 
	C158.333298,1.098610 315.666626,1.098610 472.973694,1.098610 
	C472.973694,45.071484 472.973694,89.035751 472.973694,133.000000 
	C430.798279,133.000000 388.649139,133.000000 346.000000,133.000000 
M80.985870,57.655499 
	C81.654053,67.401474 81.584549,77.272392 83.207848,86.856606 
	C84.688980,95.601494 90.818260,100.185867 99.647728,100.972374 
	C104.578430,101.411583 109.598999,101.445732 114.536369,101.082253 
	C125.292862,100.290382 131.423218,95.513733 132.824234,84.804070 
	C134.192062,74.348190 134.479355,63.614559 133.917480,53.073410 
	C132.985733,35.592869 124.516029,28.561649 106.997398,29.267981 
	C105.502930,29.328236 104.010735,29.479788 102.521484,29.628935 
	C90.303368,30.852549 84.591431,35.908798 82.195656,47.809872 
	C81.606834,50.734840 81.403496,53.737411 80.985870,57.655499 
M367.024475,70.485847 
	C372.767151,79.438896 378.624359,88.321602 384.189392,97.383743 
	C386.096222,100.488823 388.155457,101.932396 391.696411,100.604851 
	C391.696411,77.053162 391.696411,53.649250 391.696411,30.204815 
	C389.692841,30.204815 387.951416,30.204815 385.822083,30.204815 
	C385.822083,49.658806 385.822083,68.864029 385.822083,89.373390 
	C384.180817,87.069748 383.216614,85.827980 382.369690,84.510826 
	C371.402954,67.455139 360.390106,50.428402 349.558258,33.287350 
	C347.676422,30.309380 345.700745,29.053530 342.264038,30.454218 
	C342.264038,53.907375 342.264038,77.303261 342.264038,100.788651 
	C344.267334,100.788651 346.013458,100.788651 348.339722,100.788651 
	C348.339722,81.309509 348.339722,62.043064 348.339722,42.266354 
	C349.175018,43.004623 349.486542,43.180202 349.658142,43.446091 
	C355.336456,52.244480 361.001434,61.051495 367.024475,70.485847 
M147.861740,88.408386 
	C149.530731,94.635262 153.718124,98.714973 159.798660,99.843628 
	C165.775177,100.952965 172.021820,101.424164 178.086548,101.074890 
	C191.690582,100.291397 197.791565,93.622246 197.969086,79.929947 
	C198.146149,66.272659 198.020416,52.611443 198.026855,38.951950 
	C198.028244,36.006840 198.027054,33.061729 198.027054,29.884453 
	C195.697708,30.000290 193.953033,30.087051 191.910690,30.188616 
	C191.910690,45.694736 191.932678,60.828224 191.904480,75.961617 
	C191.876572,90.941727 186.210403,96.369049 171.108841,95.844795 
	C168.961029,95.770241 166.800705,95.429657 164.691101,94.994377 
	C157.226852,93.454247 153.273956,89.206131 153.081909,81.587891 
	C152.771408,69.268959 152.882812,56.939251 152.829910,44.614029 
	C152.809372,39.824974 152.826553,35.035759 152.826553,30.139580 
	C150.525986,30.139580 148.742157,30.139580 146.827042,30.139580 
	C146.732819,31.134890 146.586594,31.949713 146.588776,32.764137 
	C146.632553,48.920483 146.660782,65.077042 146.790390,81.232780 
	C146.807480,83.363815 147.359711,85.490555 147.861740,88.408386 
M295.340546,94.822556 
	C293.893036,92.947990 291.349823,91.158073 291.197266,89.183456 
	C290.676819,82.447365 290.998016,75.646248 290.998016,68.212402 
	C301.936188,68.212402 312.513428,68.212402 323.480286,68.212402 
	C323.291718,66.119797 323.166107,64.726219 322.988861,62.759285 
	C312.063904,62.759285 301.504364,62.759285 290.798767,62.759285 
	C290.798767,60.819859 290.796814,59.492432 290.799103,58.165012 
	C290.806549,53.835346 290.708649,49.502220 290.848450,45.176804 
	C291.069061,38.350117 293.451172,35.925137 300.304688,35.802238 
	C308.795044,35.649986 317.289764,35.745468 325.782410,35.700375 
	C326.223022,35.698032 326.662018,35.381374 327.412476,35.090687 
	C327.322205,33.696945 327.232178,32.306499 327.083099,30.004341 
	C316.777069,30.004341 306.806366,29.805767 296.847961,30.070215 
	C289.520630,30.264795 285.029297,34.047211 284.892792,40.868874 
	C284.556580,57.671638 284.623871,74.489517 284.927521,91.294121 
	C285.030243,96.979668 288.866852,100.731995 294.502838,100.905144 
	C305.271698,101.235985 316.057953,101.001236 327.021973,101.001236 
	C327.021973,98.758980 327.021973,97.261841 327.021973,94.983734 
	C316.469391,94.983734 306.338165,94.983734 295.340546,94.822556 
M26.483799,81.413055 
	C26.599613,84.737778 26.519760,88.083580 26.875303,91.382469 
	C27.466614,96.868896 30.725170,100.671707 36.099651,100.860001 
	C47.023956,101.242737 57.971069,100.974434 69.174881,100.974434 
	C69.174881,98.801323 69.174881,97.400452 69.174881,95.569145 
	C66.649673,95.569145 64.355820,95.606636 62.063545,95.562286 
	C54.413727,95.414291 46.762150,95.304459 39.116062,95.040436 
	C35.650837,94.920776 33.283783,92.815491 33.132984,89.486420 
	C32.819813,82.572571 33.038406,75.634621 33.038406,68.062820 
	C44.064854,68.062820 54.644356,68.062820 65.602066,68.062820 
	C65.311279,65.980751 65.118652,64.601486 64.873672,62.847404 
	C54.034847,62.847404 43.594322,62.847404 33.301205,62.847404 
	C33.056774,62.109955 32.871986,61.809200 32.869648,61.507034 
	C32.832306,56.679077 32.770546,51.850555 32.809227,47.022923 
	C32.881699,37.978291 35.022987,35.811157 43.950962,35.766922 
	C52.239498,35.725853 60.528397,35.758160 69.150200,35.758160 
	C69.247162,33.978165 69.324066,32.566410 69.466209,29.957098 
	C60.127129,29.957098 51.176266,29.975027 42.225506,29.952646 
	C30.549919,29.923452 26.595970,33.735153 26.504532,45.465618 
	C26.413677,57.121567 26.484898,68.778778 26.483799,81.413055 
M418.404022,29.810701 
	C408.348236,31.546967 404.258484,36.204861 403.987976,46.292095 
	C403.925507,48.622204 403.907867,50.958191 403.994720,53.286804 
	C404.333984,62.383495 409.081635,67.355026 418.226715,68.027985 
	C421.708923,68.284241 425.217896,68.168793 428.714233,68.243034 
	C438.146606,68.443344 441.130951,71.445251 441.309998,80.953201 
	C441.338165,82.448372 441.202026,83.946220 441.155701,85.443268 
	C440.992889,90.704628 438.033691,93.774376 433.172607,94.889771 
	C430.122375,95.589653 426.921539,95.823372 423.779846,95.894943 
	C417.332153,96.041817 410.878754,95.939049 404.204468,95.939049 
	C404.204468,97.007614 404.204468,98.425560 404.204468,100.351669 
	C410.821960,100.783592 417.269806,101.512154 423.723450,101.568024 
	C443.172577,101.736382 449.204987,94.912376 447.092438,75.581802 
	C447.074371,75.416306 447.074921,75.248627 447.053558,75.083672 
	C446.180298,68.336647 441.975769,63.731590 435.206665,62.886715 
	C430.104706,62.249924 424.855164,62.669361 419.799194,61.839481 
	C416.910309,61.365307 412.279785,59.743473 411.903961,57.922215 
	C410.777008,52.460987 410.333282,46.412613 411.566162,41.039246 
	C412.739502,35.925388 418.369873,35.129578 423.133087,35.128502 
	C429.452118,35.127075 435.770935,35.622375 442.091064,35.872768 
	C442.716278,35.897541 443.350159,35.703526 444.206543,35.577805 
	C444.095642,33.969425 443.996796,32.535759 443.798706,29.662830 
	C435.475128,29.662830 427.363586,29.662830 418.404022,29.810701 
M233.472977,32.914196 
	C233.473984,40.235695 233.433838,47.557480 233.485352,54.878624 
	C233.568466,66.687408 233.507355,78.502853 233.915985,90.301323 
	C234.121368,96.231400 236.829056,99.895370 242.454681,100.248398 
	C253.130692,100.918343 263.878632,100.442360 274.811218,100.442360 
	C274.661957,98.676758 274.527130,97.081573 274.360687,95.112495 
	C272.168945,95.112495 270.373169,95.118568 268.577454,95.111427 
	C261.589691,95.083656 254.596161,95.214417 247.615982,94.968567 
	C242.263794,94.780060 240.075394,92.537552 239.920639,87.224121 
	C239.717239,80.241211 239.809647,73.249245 239.802399,66.261154 
	C239.789993,54.312984 239.798965,42.364799 239.798965,28.799915 
	C237.084976,30.174906 235.282043,31.088329 233.472977,32.914196 
M218.851791,79.499863 
	C218.851791,63.059517 218.851791,46.619171 218.851791,30.085678 
	C216.475159,30.085678 214.681473,30.085678 212.813965,30.085678 
	C212.813965,53.791546 212.813965,77.307289 212.813965,101.108688 
	C214.996567,100.997826 216.741486,100.909203 218.851791,100.802010 
	C218.851791,93.771439 218.851791,87.135597 218.851791,79.499863 
M125.843460,116.230545 
	C126.954575,114.832993 128.065689,113.435440 129.823517,111.224449 
	C119.354462,110.971085 119.435158,110.892738 113.663933,104.948471 
	C112.717758,103.973930 110.706635,104.033348 108.816170,103.512543 
	C110.650909,112.839439 115.260818,116.250191 125.843460,116.230545 
z"/>
<path fill="#292929" opacity="1.000000" stroke="none" 
	d="
M81.004410,57.179901 
	C81.403496,53.737411 81.606834,50.734840 82.195656,47.809872 
	C84.591431,35.908798 90.303368,30.852549 102.521484,29.628935 
	C104.010735,29.479788 105.502930,29.328236 106.997398,29.267981 
	C124.516029,28.561649 132.985733,35.592869 133.917480,53.073410 
	C134.479355,63.614559 134.192062,74.348190 132.824234,84.804070 
	C131.423218,95.513733 125.292862,100.290382 114.536369,101.082253 
	C109.598999,101.445732 104.578430,101.411583 99.647728,100.972374 
	C90.818260,100.185867 84.688980,95.601494 83.207848,86.856606 
	C81.584549,77.272392 81.654053,67.401474 81.004410,57.179901 
M127.432259,50.407188 
	C126.163315,43.982750 124.256294,37.646271 116.893669,36.186962 
	C111.933228,35.203777 106.652458,35.267769 101.567650,35.621120 
	C94.793526,36.091873 90.045685,40.328785 89.281525,46.805901 
	C88.062927,57.134998 87.066376,67.694420 87.870827,78.008667 
	C88.986206,92.309624 94.425819,96.198624 108.865753,95.901146 
	C110.030899,95.877144 111.204475,95.856796 112.357307,95.706055 
	C121.264877,94.541412 125.712128,91.469398 126.781403,82.553741 
	C128.019379,72.231499 127.448540,61.692322 127.432259,50.407188 
z"/>
<path fill="#262626" opacity="1.000000" stroke="none" 
	d="
M366.846405,70.171547 
	C361.001434,61.051495 355.336456,52.244480 349.658142,43.446091 
	C349.486542,43.180202 349.175018,43.004623 348.339722,42.266354 
	C348.339722,62.043064 348.339722,81.309509 348.339722,100.788651 
	C346.013458,100.788651 344.267334,100.788651 342.264038,100.788651 
	C342.264038,77.303261 342.264038,53.907375 342.264038,30.454218 
	C345.700745,29.053530 347.676422,30.309380 349.558258,33.287350 
	C360.390106,50.428402 371.402954,67.455139 382.369690,84.510826 
	C383.216614,85.827980 384.180817,87.069748 385.822083,89.373390 
	C385.822083,68.864029 385.822083,49.658806 385.822083,30.204815 
	C387.951416,30.204815 389.692841,30.204815 391.696411,30.204815 
	C391.696411,53.649250 391.696411,77.053162 391.696411,100.604851 
	C388.155457,101.932396 386.096222,100.488823 384.189392,97.383743 
	C378.624359,88.321602 372.767151,79.438896 366.846405,70.171547 
z"/>
<path fill="#272727" opacity="1.000000" stroke="none" 
	d="
M147.762909,88.013840 
	C147.359711,85.490555 146.807480,83.363815 146.790390,81.232780 
	C146.660782,65.077042 146.632553,48.920483 146.588776,32.764137 
	C146.586594,31.949713 146.732819,31.134890 146.827042,30.139580 
	C148.742157,30.139580 150.525986,30.139580 152.826553,30.139580 
	C152.826553,35.035759 152.809372,39.824974 152.829910,44.614029 
	C152.882812,56.939251 152.771408,69.268959 153.081909,81.587891 
	C153.273956,89.206131 157.226852,93.454247 164.691101,94.994377 
	C166.800705,95.429657 168.961029,95.770241 171.108841,95.844795 
	C186.210403,96.369049 191.876572,90.941727 191.904480,75.961617 
	C191.932678,60.828224 191.910690,45.694736 191.910690,30.188616 
	C193.953033,30.087051 195.697708,30.000290 198.027054,29.884453 
	C198.027054,33.061729 198.028244,36.006840 198.026855,38.951950 
	C198.020416,52.611443 198.146149,66.272659 197.969086,79.929947 
	C197.791565,93.622246 191.690582,100.291397 178.086548,101.074890 
	C172.021820,101.424164 165.775177,100.952965 159.798660,99.843628 
	C153.718124,98.714973 149.530731,94.635262 147.762909,88.013840 
z"/>
<path fill="#2A2A2A" opacity="1.000000" stroke="none" 
	d="
M295.773743,94.903145 
	C306.338165,94.983734 316.469391,94.983734 327.021973,94.983734 
	C327.021973,97.261841 327.021973,98.758980 327.021973,101.001236 
	C316.057953,101.001236 305.271698,101.235985 294.502838,100.905144 
	C288.866852,100.731995 285.030243,96.979668 284.927521,91.294121 
	C284.623871,74.489517 284.556580,57.671638 284.892792,40.868874 
	C285.029297,34.047211 289.520630,30.264795 296.847961,30.070215 
	C306.806366,29.805767 316.777069,30.004341 327.083099,30.004341 
	C327.232178,32.306499 327.322205,33.696945 327.412476,35.090687 
	C326.662018,35.381374 326.223022,35.698032 325.782410,35.700375 
	C317.289764,35.745468 308.795044,35.649986 300.304688,35.802238 
	C293.451172,35.925137 291.069061,38.350117 290.848450,45.176804 
	C290.708649,49.502220 290.806549,53.835346 290.799103,58.165012 
	C290.796814,59.492432 290.798767,60.819859 290.798767,62.759285 
	C301.504364,62.759285 312.063904,62.759285 322.988861,62.759285 
	C323.166107,64.726219 323.291718,66.119797 323.480286,68.212402 
	C312.513428,68.212402 301.936188,68.212402 290.998016,68.212402 
	C290.998016,75.646248 290.676819,82.447365 291.197266,89.183456 
	C291.349823,91.158073 293.893036,92.947990 295.773743,94.903145 
z"/>
<path fill="#2A2A2A" opacity="1.000000" stroke="none" 
	d="
M26.484421,80.924248 
	C26.484898,68.778778 26.413677,57.121567 26.504532,45.465618 
	C26.595970,33.735153 30.549919,29.923452 42.225506,29.952646 
	C51.176266,29.975027 60.127129,29.957098 69.466209,29.957098 
	C69.324066,32.566410 69.247162,33.978165 69.150200,35.758160 
	C60.528397,35.758160 52.239498,35.725853 43.950962,35.766922 
	C35.022987,35.811157 32.881699,37.978291 32.809227,47.022923 
	C32.770546,51.850555 32.832306,56.679077 32.869648,61.507034 
	C32.871986,61.809200 33.056774,62.109955 33.301205,62.847404 
	C43.594322,62.847404 54.034847,62.847404 64.873672,62.847404 
	C65.118652,64.601486 65.311279,65.980751 65.602066,68.062820 
	C54.644356,68.062820 44.064854,68.062820 33.038406,68.062820 
	C33.038406,75.634621 32.819813,82.572571 33.132984,89.486420 
	C33.283783,92.815491 35.650837,94.920776 39.116062,95.040436 
	C46.762150,95.304459 54.413727,95.414291 62.063545,95.562286 
	C64.355820,95.606636 66.649673,95.569145 69.174881,95.569145 
	C69.174881,97.400452 69.174881,98.801323 69.174881,100.974434 
	C57.971069,100.974434 47.023956,101.242737 36.099651,100.860001 
	C30.725170,100.671707 27.466614,96.868896 26.875303,91.382469 
	C26.519760,88.083580 26.599613,84.737778 26.484421,80.924248 
z"/>
<path fill="#292929" opacity="1.000000" stroke="none" 
	d="
M418.828003,29.736767 
	C427.363586,29.662830 435.475128,29.662830 443.798706,29.662830 
	C443.996796,32.535759 444.095642,33.969425 444.206543,35.577805 
	C443.350159,35.703526 442.716278,35.897541 442.091064,35.872768 
	C435.770935,35.622375 429.452118,35.127075 423.133087,35.128502 
	C418.369873,35.129578 412.739502,35.925388 411.566162,41.039246 
	C410.333282,46.412613 410.777008,52.460987 411.903961,57.922215 
	C412.279785,59.743473 416.910309,61.365307 419.799194,61.839481 
	C424.855164,62.669361 430.104706,62.249924 435.206665,62.886715 
	C441.975769,63.731590 446.180298,68.336647 447.053558,75.083672 
	C447.074921,75.248627 447.074371,75.416306 447.092438,75.581802 
	C449.204987,94.912376 443.172577,101.736382 423.723450,101.568024 
	C417.269806,101.512154 410.821960,100.783592 404.204468,100.351669 
	C404.204468,98.425560 404.204468,97.007614 404.204468,95.939049 
	C410.878754,95.939049 417.332153,96.041817 423.779846,95.894943 
	C426.921539,95.823372 430.122375,95.589653 433.172607,94.889771 
	C438.033691,93.774376 440.992889,90.704628 441.155701,85.443268 
	C441.202026,83.946220 441.338165,82.448372 441.309998,80.953201 
	C441.130951,71.445251 438.146606,68.443344 428.714233,68.243034 
	C425.217896,68.168793 421.708923,68.284241 418.226715,68.027985 
	C409.081635,67.355026 404.333984,62.383495 403.994720,53.286804 
	C403.907867,50.958191 403.925507,48.622204 403.987976,46.292095 
	C404.258484,36.204861 408.348236,31.546967 418.828003,29.736767 
z"/>
<path fill="#2B2B2B" opacity="1.000000" stroke="none" 
	d="
M233.476044,32.457977 
	C235.282043,31.088329 237.084976,30.174906 239.798965,28.799915 
	C239.798965,42.364799 239.789993,54.312984 239.802399,66.261154 
	C239.809647,73.249245 239.717239,80.241211 239.920639,87.224121 
	C240.075394,92.537552 242.263794,94.780060 247.615982,94.968567 
	C254.596161,95.214417 261.589691,95.083656 268.577454,95.111427 
	C270.373169,95.118568 272.168945,95.112495 274.360687,95.112495 
	C274.527130,97.081573 274.661957,98.676758 274.811218,100.442360 
	C263.878632,100.442360 253.130692,100.918343 242.454681,100.248398 
	C236.829056,99.895370 234.121368,96.231400 233.915985,90.301323 
	C233.507355,78.502853 233.568466,66.687408 233.485352,54.878624 
	C233.433838,47.557480 233.473984,40.235695 233.476044,32.457977 
z"/>
<path fill="#3B3B3B" opacity="1.000000" stroke="none" 
	d="
M218.851791,79.999817 
	C218.851791,87.135597 218.851791,93.771439 218.851791,100.802010 
	C216.741486,100.909203 214.996567,100.997826 212.813965,101.108688 
	C212.813965,77.307289 212.813965,53.791546 212.813965,30.085678 
	C214.681473,30.085678 216.475159,30.085678 218.851791,30.085678 
	C218.851791,46.619171 218.851791,63.059517 218.851791,79.999817 
z"/>
<path fill="#2A2A2A" opacity="1.000000" stroke="none" 
	d="
M125.455795,116.283096 
	C115.260818,116.250191 110.650909,112.839439 108.816170,103.512543 
	C110.706635,104.033348 112.717758,103.973930 113.663933,104.948471 
	C119.435158,110.892738 119.354462,110.971085 129.823517,111.224449 
	C128.065689,113.435440 126.954575,114.832993 125.455795,116.283096 
z"/>
<path fill="#FDFDFD" opacity="1.000000" stroke="none" 
	d="
M127.547615,50.827255 
	C127.448540,61.692322 128.019379,72.231499 126.781403,82.553741 
	C125.712128,91.469398 121.264877,94.541412 112.357307,95.706055 
	C111.204475,95.856796 110.030899,95.877144 108.865753,95.901146 
	C94.425819,96.198624 88.986206,92.309624 87.870827,78.008667 
	C87.066376,67.694420 88.062927,57.134998 89.281525,46.805901 
	C90.045685,40.328785 94.793526,36.091873 101.567650,35.621120 
	C106.652458,35.267769 111.933228,35.203777 116.893669,36.186962 
	C124.256294,37.646271 126.163315,43.982750 127.547615,50.827255 
z"/>
</svg>